# xmcd
#
# Track frame offsets: 
#        150
#        23109
#        38022
#        59585
#        90838
#        113303
#        142803
#        163014
#        188351
#        213908
#        239924
#
# Disc length: 3422 seconds
#
# Revision: 0
# Processed by: cddbd v1.5.2PL0 Copyright (c) Steve Scherf et al.
# Submitted via: ExactAudioCopy v0.99pb4
#
DISCID=820d5c0b
DTITLE=Lucky Peterson - You Can Always Turn Around
DYEAR=2012
DGENRE=Blues
TTITLE0=I Believe I'll Dust My Broom
TTITLE1=I'm Here Now
TTITLE2=Statesboro Blues
TTITLE3=Trouble
TTITLE4=Trampled Rose
TTITLE5=Atonement
TTITLE6=Why Are People Like That
TTITLE7=Four Little Boys
TTITLE8=Death Don't Have No Mercy
TTITLE9=I Wish I Knew How It Would Feel To Be Free
TTITLE10=Think
EXTD=
EXTT0=
EXTT1=
EXTT2=
EXTT3=
EXTT4=
EXTT5=
EXTT6=
EXTT7=
EXTT8=
EXTT9=
EXTT10=
PLAYORDER=
